<svg width="18" height="22" viewBox="0 0 18 22" fill="none" xmlns="http://www.w3.org/2000/svg">
<path d="M9 5.07251C7.66498 5.07251 6.35994 5.46839 5.2499 6.21009C4.13987 6.95179 3.27471 8.006 2.76382 9.2394C2.25292 10.4728 2.11925 11.83 2.3797 13.1394C2.64015 14.4487 3.28303 15.6515 4.22703 16.5955C5.17104 17.5395 6.37377 18.1824 7.68314 18.4428C8.99252 18.7033 10.3497 18.5696 11.5831 18.0587C12.8165 17.5478 13.8707 16.6826 14.6124 15.5726C15.3541 14.4626 15.75 13.1575 15.75 11.8225C15.748 10.0329 15.0361 8.31723 13.7707 7.0518C12.5053 5.78637 10.7896 5.07456 9 5.07251ZM9 17.4475C7.88748 17.4475 6.79995 17.1176 5.87492 16.4995C4.94989 15.8814 4.22892 15.0029 3.80318 13.9751C3.37744 12.9473 3.26604 11.8163 3.48309 10.7251C3.70013 9.63398 4.23586 8.6317 5.02253 7.84503C5.8092 7.05836 6.81148 6.52263 7.90262 6.30559C8.99376 6.08855 10.1248 6.19994 11.1526 6.62569C12.1804 7.05143 13.0589 7.7724 13.677 8.69743C14.2951 9.62245 14.625 10.71 14.625 11.8225C14.6233 13.3138 14.0302 14.7436 12.9756 15.7981C11.9211 16.8527 10.4913 17.4458 9 17.4475ZM12.2105 8.61204C12.2628 8.66428 12.3043 8.72632 12.3326 8.79461C12.3609 8.86289 12.3754 8.93609 12.3754 9.01001C12.3754 9.08393 12.3609 9.15713 12.3326 9.22541C12.3043 9.2937 12.2628 9.35574 12.2105 9.40798L9.39797 12.2205C9.34571 12.2727 9.28367 12.3142 9.21538 12.3425C9.1471 12.3708 9.07391 12.3853 9 12.3853C8.92609 12.3853 8.85291 12.3708 8.78462 12.3425C8.71634 12.3142 8.6543 12.2727 8.60203 12.2205C8.54977 12.1682 8.50832 12.1062 8.48003 12.0379C8.45175 11.9696 8.43719 11.8964 8.43719 11.8225C8.43719 11.7486 8.45175 11.6754 8.48003 11.6071C8.50832 11.5388 8.54977 11.4768 8.60203 11.4245L11.4145 8.61204C11.4668 8.55974 11.5288 8.51825 11.5971 8.48994C11.6654 8.46164 11.7386 8.44707 11.8125 8.44707C11.8864 8.44707 11.9596 8.46164 12.0279 8.48994C12.0962 8.51825 12.1582 8.55974 12.2105 8.61204ZM6.75 3.38501C6.75 3.23583 6.80927 3.09275 6.91476 2.98726C7.02025 2.88177 7.16332 2.82251 7.3125 2.82251H10.6875C10.8367 2.82251 10.9798 2.88177 11.0853 2.98726C11.1907 3.09275 11.25 3.23583 11.25 3.38501C11.25 3.53419 11.1907 3.67727 11.0853 3.78276C10.9798 3.88825 10.8367 3.94751 10.6875 3.94751H7.3125C7.16332 3.94751 7.02025 3.88825 6.91476 3.78276C6.80927 3.67727 6.75 3.53419 6.75 3.38501Z" fill="#DF072E"/>
</svg>
