<svg width="16" height="13" viewBox="0 0 16 13" fill="none" xmlns="http://www.w3.org/2000/svg">
<path d="M14.536 0.684455L14.288 0.774455L0.818008 5.62846C0.722646 5.658 0.639784 5.71836 0.582408 5.80006C0.525033 5.88176 0.496388 5.98019 0.500962 6.07992C0.505537 6.17965 0.543073 6.27504 0.607687 6.35114C0.672302 6.42725 0.760341 6.47976 0.858008 6.50046L4.34401 7.45546L4.99401 9.36446L5.64501 11.2735C5.6824 11.367 5.74205 11.45 5.8188 11.5153C5.89554 11.5805 5.98705 11.6261 6.08539 11.648C6.18373 11.6698 6.28592 11.6674 6.3831 11.6408C6.48027 11.6142 6.56949 11.5643 6.64301 11.4955L8.44501 9.79346L11.982 12.1935C12.414 12.4875 13.031 12.2685 13.142 11.7835L15.483 1.43246C15.597 0.919455 15.058 0.498455 14.535 0.684455H14.536ZM12.816 2.98246L6.73201 7.95746L6.44501 8.19146C6.3823 8.2415 6.34144 8.31391 6.33101 8.39346L6.26701 8.92346L6.09101 10.4085C6.09247 10.4266 6.08665 10.4446 6.07483 10.4585C6.06302 10.4724 6.04618 10.481 6.02801 10.4825C6.00984 10.4839 5.99184 10.4781 5.97796 10.4663C5.96408 10.4545 5.95547 10.4376 5.95401 10.4195L5.45901 8.93445L4.94901 7.41446C4.92726 7.34627 4.92994 7.27264 4.95658 7.20621C4.98323 7.13979 5.03217 7.08472 5.09501 7.05046L11.428 3.42046L12.62 2.73846C12.793 2.63846 12.97 2.85746 12.818 2.98246H12.816Z" fill="white"/>
</svg>
