<svg width="8" height="16" viewBox="0 0 8 16" fill="none" xmlns="http://www.w3.org/2000/svg">
<path d="M7.80189 7.06242L7.55989 9.15242C7.54985 9.24767 7.50521 9.33591 7.43443 9.40043C7.36365 9.46494 7.27165 9.50124 7.17589 9.50242H4.99389L4.98389 15.7004C4.98443 15.774 4.95599 15.8448 4.90471 15.8976C4.85344 15.9504 4.78345 15.9808 4.70989 15.9824H2.49989C2.46309 15.9825 2.42667 15.975 2.39281 15.9606C2.35895 15.9462 2.32835 15.9251 2.30285 15.8986C2.27735 15.8721 2.25748 15.8407 2.24442 15.8063C2.23137 15.7719 2.2254 15.7352 2.22689 15.6984V9.50242H0.590887C0.53954 9.5019 0.488798 9.49127 0.441559 9.47113C0.394321 9.451 0.351511 9.42176 0.315574 9.38508C0.279637 9.3484 0.251277 9.305 0.232114 9.25736C0.212951 9.20972 0.203359 9.15877 0.203887 9.10742L0.194887 7.01742C0.193961 6.96564 0.203276 6.91419 0.222299 6.86603C0.241322 6.81786 0.269676 6.77393 0.305732 6.73676C0.341788 6.69959 0.384835 6.66991 0.432399 6.64943C0.479963 6.62895 0.531106 6.61807 0.582887 6.61742H2.22689V4.60142C2.22689 2.25742 3.61789 0.982422 5.65789 0.982422H7.32989C7.38158 0.982944 7.43267 0.99366 7.48021 1.01396C7.52776 1.03425 7.57084 1.06373 7.60697 1.1007C7.64311 1.13768 7.67159 1.18141 7.6908 1.22941C7.71 1.27741 7.71955 1.32873 7.71889 1.38042V3.14042C7.71941 3.19212 7.70974 3.24341 7.69041 3.29135C7.67109 3.3393 7.64249 3.38296 7.60626 3.41984C7.57003 3.45672 7.52688 3.48609 7.47929 3.50627C7.43169 3.52644 7.38058 3.53703 7.32889 3.53742H6.30489C5.19689 3.53742 4.98089 4.08342 4.98089 4.87142V6.61842H7.41789C7.47331 6.6191 7.52797 6.63149 7.57826 6.65479C7.62856 6.67809 7.67336 6.71176 7.70972 6.7536C7.74608 6.79543 7.77317 6.84449 7.78923 6.89754C7.80529 6.95059 7.80994 7.00644 7.80289 7.06142L7.80189 7.06242Z" fill="white"/>
</svg>
