<svg width="100" height="51" viewBox="0 0 100 51" fill="none" xmlns="http://www.w3.org/2000/svg">
<path d="M38.5417 49.3864H35.8686L35.5104 50.3826H33.8511L36.4435 43.6895H38.0223L40.6147 50.3826H38.8998L38.5417 49.3864ZM38.0928 48.1306L37.2127 45.6818L36.325 48.1306H38.0928ZM42.5112 47.3487V50.3826H40.9149V43.6895H42.5112V46.6325L44.5741 43.6895H46.4227L44.0622 46.8671L46.6648 50.3851H44.6372L42.5112 47.3513V47.3487ZM47.0178 43.687H51.1007V45.0968H48.6141V46.5241H50.7955V47.9339H48.6141V50.3826H47.0178V43.687ZM55.4005 49.3864H52.7274L52.3692 50.3826H50.7099L53.3023 43.6895H54.881L57.4735 50.3826H55.7586L55.4005 49.3864ZM54.9542 48.1306L54.074 45.6818L53.1863 48.1306H54.9542ZM60.9132 50.3826H59.3346V43.6895H60.9763L63.014 46.5871L64.9432 43.6895H66.567V50.3826H64.9886V46.6325L64.9987 46.3173L63.0695 49.0989H62.9156L60.9057 46.2896L60.9158 46.6225V50.3826H60.9132ZM67.4578 43.687H71.3334V45.0968H69.0538V46.3274H71.0992V47.611H69.0538V48.9754H71.4045V50.3851H67.4552V43.6921L67.4578 43.687ZM72.1407 43.687H74.1604C76.0091 43.687 77.7144 44.6831 77.7144 47.026C77.7144 49.3688 76.0446 50.3826 74.1782 50.3826H72.1407V43.687ZM73.7394 48.9375H74.2512C75.2479 48.9375 76.1177 48.3096 76.1177 47.026C76.1177 45.7423 75.2479 45.1421 74.2512 45.132H73.7394V48.9375ZM79.9381 43.687V48.9375H82.2005V50.3826H78.342V43.6895H79.9381V43.687ZM82.917 43.687H84.513V50.38H82.917V43.687ZM86.9742 46.3879V50.38H85.3782V43.687H86.9111L89.819 47.6893V43.687H91.4157V50.38H89.8894L86.9716 46.3879H86.9742ZM92.3005 43.687H96.1769V45.0968H93.8966V46.3274H95.942V47.611H93.8966V48.9754H96.2473V50.3851H92.2979V43.6921L92.3005 43.687Z" fill="white"/>
<path d="M96.2321 21.0732C95.8663 21.3784 95.1807 22.8638 94.8025 23.4186C93.7301 24.9897 91.0847 28.1849 88.9413 27.5191C87.4031 27.04 87.5492 24.4601 87.7735 23.1941C87.8544 22.9495 88.5603 22.5486 88.815 22.3468C91.6143 20.1074 93.7755 17.6157 95.7077 14.5945C97.4807 11.823 100.656 5.77303 99.8788 2.50467C99.1676 -0.48375 96.1011 -0.143355 94.0709 1.33704C89.6906 4.52974 85.938 15.3057 84.5281 20.5159C84.0867 22.1476 84.1827 23.0555 83.1005 24.4753C82.4577 25.3201 80.8663 27.1611 79.8222 27.3351C78.3143 27.5847 78.6775 26.1245 78.8992 25.1839C79.638 22.0366 81.4867 18.9498 82.7426 15.9891C82.9163 15.5781 83.388 14.6399 83.2242 14.2516C82.8584 13.3966 80.5307 13.4244 79.8551 13.8607C79.459 14.1129 79.1235 15.0157 78.9446 15.452C78.6873 15.4949 78.6952 15.0788 78.5511 14.8543C77.5623 13.3059 75.7643 13.379 74.1735 13.8455C70.9077 14.8064 68.2163 18.7935 66.865 21.7491C66.4893 22.5713 66.1788 23.812 65.7603 24.5182C65.2659 25.3579 62.7441 28.0109 61.8816 28.3867C60.3483 29.055 60.4719 27.8974 60.7392 26.7702L65.44 15.1216L65.387 14.6954C64.4136 14.1482 63.0165 14.3398 61.9472 14.5618C61.6849 14.7055 61.4882 15.2099 61.3571 15.4847C60.0406 18.2134 59.047 21.2472 57.8012 24.0213C56.0536 26.5609 51.383 31.1053 48.0239 29.6981C45.7542 28.7473 46.9294 24.8434 47.6557 23.1361C48.4375 21.3028 50.5911 17.6586 52.4573 16.8844C54.5127 16.032 53.7057 18.2538 53.2644 19.2953C52.9517 20.0342 52.0463 21.2145 51.8723 21.7793C51.5444 22.8537 52.6263 23.1765 53.4812 23.1034C56.6538 22.8335 58.9007 14.7635 54.4042 14.1557C51.3956 13.7472 48.7452 15.3184 46.8209 17.4821C45.8273 18.5942 45.1641 20.1049 44.0317 21.0253C43.5425 21.4238 41.6864 22.5082 41.1089 22.5435C40.9349 22.5536 40.9601 22.5511 40.9677 22.3972C41.0484 20.6722 41.0332 18.8414 40.0951 17.3132C38.2642 14.3348 34.146 15.5831 31.9444 17.4392C28.5373 20.3141 22.8076 31.5541 28.6004 34.2904C33.8484 36.7669 39.2427 29.5593 40.5112 25.2041L42.8086 24.3366C43.0003 24.2811 42.9625 24.4349 42.9423 24.5636C42.8641 25.0528 42.5993 25.5975 42.5035 26.1094C40.9652 34.4417 48.5838 34.8351 53.8444 31.0246C54.7649 30.3563 55.529 29.5392 56.3637 28.7751V30.4294C56.3637 30.6312 56.8076 31.4306 56.9765 31.6122C58.1694 32.8807 60.2953 32.283 61.6244 31.5315C63.0971 30.6993 64.1034 29.2996 65.2458 28.1143C65.0919 29.6855 66.0551 31.4533 67.6768 31.7761C69.8228 32.2048 72.1156 30.8834 73.515 29.3425L74.8821 27.5469C74.5386 29.4888 75.2729 31.5264 77.565 31.3146C80.0163 31.0851 82.0768 28.6792 83.6228 26.982C84.1676 28.2505 84.5459 29.6981 85.8117 30.4597C90.0584 33.0093 97.1373 26.8005 97.5485 22.5763C97.6169 21.8777 97.1176 20.3343 96.2321 21.0732ZM91.7788 10.4763C92.5301 8.76651 94.6886 3.9623 96.3307 3.21579C96.686 3.05441 97.1274 3.02414 97.1853 3.49579C97.4959 5.95961 94.3485 11.6843 92.9689 13.838C91.69 15.8353 90.2301 17.9083 88.49 19.5147C89.3952 16.4481 90.4926 13.4067 91.7788 10.4763ZM34.199 30.1822C31.9217 32.5074 29.9673 31.2717 30.1942 28.1622C30.3203 26.4701 31.6619 23.2395 32.7186 21.903C32.7766 21.8273 32.7136 21.729 32.933 21.7844C33.1549 23.9406 35.2077 25.1082 37.1848 25.3251C36.34 26.9064 35.4675 28.8886 34.199 30.1822ZM38.0348 22.7276C36.2871 22.5385 34.721 21.4213 35.0186 19.4744C35.1724 18.4656 36.4787 17.3333 37.4623 18.0571C38.635 18.9195 38.1835 21.4818 38.0348 22.7276ZM77.2472 19.4693C76.4834 21.676 73.7518 26.9416 71.6413 27.9428C69.8228 28.8028 69.1268 27.6125 69.3189 25.9026C69.6064 23.343 73.409 16.3901 76.1834 16.0446C78.3544 15.7722 77.6636 18.2639 77.2472 19.4693Z" fill="#FAFAFA"/>
<path d="M21.577 0.741944C27.975 0.235036 31.7553 4.84754 29.695 11.0312C28.5601 14.4383 25.322 17.2375 22.4571 13.5934C22.4446 13.4522 23.6425 12.683 23.8669 12.4762C26.8881 9.70971 27.7683 2.94859 22.0259 3.45293C19.8975 3.63958 17.8598 5.23339 16.8258 7.03905C12.7353 14.186 20.2858 17.8427 22.7497 23.7011C27.2336 34.356 15.2521 43.6844 5.25543 39.8713C-1.21826 37.4025 -1.54102 28.997 3.36398 24.8485C5.41938 23.111 9.54517 21.7492 11.1012 24.7577C8.55405 25.8825 6.57438 27.7966 5.84806 30.5454C4.41563 35.9549 8.69023 39.4098 13.6331 36.6282C16.7602 34.8679 17.88 31.7333 17.6303 28.2506C17.0931 20.7051 7.04852 18.1756 10.047 9.32892C11.6509 4.5903 16.6543 1.13023 21.577 0.741944ZM8.51115 44.224C8.47839 44.2341 8.44563 44.2467 8.4128 44.2594C8.40273 44.2367 8.43806 44.2265 8.51115 44.224ZM92.2479 39.4325C69.5657 34.4241 40.9552 37.7681 19.1712 45.6565L11.6863 43.0943C39.3135 33.7054 75.5808 32.515 92.9183 37.6244C93.1328 37.6874 92.4242 39.3291 92.2479 39.4325ZM65.6015 6.40602C68.2269 5.99247 69.1723 8.6076 67.7025 10.4915C65.7604 12.9806 61.7229 11.5406 63.2158 8.27477C63.6117 7.41227 64.6508 6.55734 65.599 6.40852L65.6015 6.40602Z" fill="#FAFAFA"/>
<path d="M8.51117 44.2241C8.47841 44.2342 8.44565 44.2468 8.41282 44.2595C8.40275 44.2368 8.43808 44.2266 8.51117 44.2241Z" fill="#FAFAFA"/>
</svg>
