<svg width="14" height="15" viewBox="0 0 14 15" fill="none" xmlns="http://www.w3.org/2000/svg">
<path d="M3.85287 2.36842C3.85852 2.62381 3.81309 2.87777 3.71926 3.11537C3.62542 3.35297 3.48507 3.56944 3.30644 3.75206C3.12781 3.93469 2.9145 4.07979 2.67903 4.17885C2.44356 4.27791 2.19068 4.32894 1.93522 4.32894C1.67975 4.32894 1.42687 4.27791 1.1914 4.17885C0.955926 4.07979 0.742616 3.93469 0.563986 3.75206C0.385356 3.56944 0.245005 3.35297 0.151171 3.11537C0.0573376 2.87777 0.0119113 2.62381 0.0175586 2.36842C0.0331373 1.87032 0.241954 1.39785 0.599796 1.05102C0.957637 0.704198 1.43641 0.510254 1.93475 0.510254C2.43308 0.510254 2.91186 0.704198 3.2697 1.05102C3.62754 1.39785 3.83729 1.87032 3.85287 2.36842ZM3.41787 5.56529V14.0365C3.41824 14.0991 3.40625 14.1611 3.38257 14.2189C3.3589 14.2768 3.32401 14.3294 3.27993 14.3738C3.23584 14.4181 3.18342 14.4533 3.12568 14.4774C3.06795 14.5014 3.00603 14.5137 2.9435 14.5137H0.922246C0.859792 14.5139 0.797929 14.5016 0.740206 14.4778C0.682482 14.454 0.630035 14.4189 0.585874 14.3748C0.541712 14.3306 0.506706 14.2782 0.482863 14.2205C0.45902 14.1627 0.44681 14.1009 0.446934 14.0384V5.56529C0.44681 5.50279 0.459014 5.44088 0.482845 5.38311C0.506677 5.32533 0.541668 5.27282 0.585818 5.22859C0.629967 5.18435 0.682406 5.14926 0.740135 5.12531C0.797864 5.10137 0.859748 5.08904 0.922246 5.08904H2.9435C3.00592 5.08916 3.0677 5.10158 3.12532 5.12558C3.18294 5.14958 3.23527 5.1847 3.27932 5.22892C3.32337 5.27314 3.35828 5.32561 3.38205 5.38332C3.40582 5.44104 3.41799 5.50287 3.41787 5.56529ZM13.9835 9.97529V14.0769C13.9837 14.1344 13.9726 14.1914 13.9507 14.2445C13.9287 14.2977 13.8965 14.346 13.8558 14.3867C13.815 14.4273 13.7667 14.4594 13.7134 14.4813C13.6602 14.5031 13.6032 14.5141 13.5457 14.5137H11.3726C11.3151 14.5139 11.2582 14.5026 11.2051 14.4807C11.152 14.4588 11.1037 14.4267 11.063 14.3861C11.0224 14.3455 10.9901 14.2973 10.9681 14.2443C10.9461 14.1912 10.9347 14.1343 10.9347 14.0769V10.1019C10.9347 9.50842 11.1091 7.50498 9.38412 7.50498C8.04818 7.50498 7.77631 8.8756 7.72193 9.49248V14.0769C7.72194 14.1918 7.67669 14.302 7.59597 14.3838C7.51525 14.4656 7.40557 14.5122 7.29068 14.5137H5.1935C5.07779 14.5135 4.96691 14.4673 4.88518 14.3854C4.80346 14.3035 4.75756 14.1926 4.75756 14.0769V5.52779C4.75744 5.47046 4.76862 5.41367 4.79047 5.36068C4.81233 5.30768 4.84442 5.25951 4.88491 5.21893C4.9254 5.17835 4.9735 5.14615 5.02645 5.12419C5.07941 5.10222 5.13617 5.09092 5.1935 5.09092H7.29068C7.40655 5.09092 7.51767 5.13694 7.5996 5.21887C7.68153 5.3008 7.72756 5.41192 7.72756 5.52779V6.26654C8.22443 5.5231 8.9585 4.94842 10.5279 4.94842C14.0022 4.94842 13.9816 8.1931 13.9816 9.97529H13.9835Z" fill="white"/>
</svg>
