<svg width="100" height="51" viewBox="0 0 100 51" fill="none" xmlns="http://www.w3.org/2000/svg">
<path d="M38.5417 49.1564H35.8686L35.5104 50.1526H33.8511L36.4435 43.4595H38.0223L40.6147 50.1526H38.8998L38.5417 49.1564ZM38.0928 47.9006L37.2127 45.4518L36.325 47.9006H38.0928ZM42.5112 47.1187V50.1526H40.9149V43.4595H42.5112V46.4026L44.5741 43.4595H46.4227L44.0622 46.6371L46.6648 50.1551H44.6372L42.5112 47.1213V47.1187ZM47.0178 43.457H51.1007V44.8668H48.6141V46.2941H50.7955V47.7039H48.6141V50.1526H47.0178V43.457ZM55.4005 49.1564H52.7274L52.3692 50.1526H50.7099L53.3023 43.4595H54.881L57.4735 50.1526H55.7586L55.4005 49.1564ZM54.9542 47.9006L54.074 45.4518L53.1863 47.9006H54.9542ZM60.9132 50.1526H59.3346V43.4595H60.9763L63.014 46.3572L64.9432 43.4595H66.567V50.1526H64.9886V46.4026L64.9987 46.0874L63.0695 48.8689H62.9156L60.9057 46.0596L60.9158 46.3925V50.1526H60.9132ZM67.4578 43.457H71.3334V44.8668H69.0538V46.0974H71.0992V47.381H69.0538V48.7454H71.4045V50.1551H67.4552V43.4621L67.4578 43.457ZM72.1407 43.457H74.1604C76.0091 43.457 77.7144 44.4532 77.7144 46.796C77.7144 49.1388 76.0446 50.1526 74.1782 50.1526H72.1407V43.457ZM73.7394 48.7076H74.2512C75.2479 48.7076 76.1177 48.0796 76.1177 46.796C76.1177 45.5124 75.2479 44.9122 74.2512 44.902H73.7394V48.7076ZM79.9381 43.457V48.7076H82.2005V50.1526H78.342V43.4595H79.9381V43.457ZM82.917 43.457H84.513V50.1501H82.917V43.457ZM86.9742 46.158V50.1501H85.3782V43.457H86.9111L89.819 47.4593V43.457H91.4157V50.1501H89.8894L86.9716 46.158H86.9742ZM92.3005 43.457H96.1769V44.8668H93.8966V46.0974H95.942V47.381H93.8966V48.7454H96.2473V50.1551H92.2979V43.4621L92.3005 43.457Z" fill="black"/>
<path d="M96.2321 20.8432C95.8663 21.1484 95.1807 22.6338 94.8025 23.1886C93.7301 24.7598 91.0847 27.955 88.9413 27.2892C87.4031 26.81 87.5492 24.2302 87.7735 22.9642C87.8544 22.7196 88.5603 22.3186 88.815 22.1168C91.6143 19.8774 93.7755 17.3857 95.7077 14.3646C97.4807 11.593 100.656 5.54305 99.8788 2.27469C99.1676 -0.71373 96.1011 -0.373336 94.0709 1.10706C89.6906 4.29976 85.938 15.0757 84.5281 20.2859C84.0867 21.9176 84.1827 22.8255 83.1005 24.2453C82.4577 25.0901 80.8663 26.9311 79.8222 27.1051C78.3143 27.3548 78.6775 25.8946 78.8992 24.9539C79.638 21.8066 81.4867 18.7198 82.7426 15.7592C82.9163 15.3481 83.388 14.41 83.2242 14.0216C82.8584 13.1667 80.5307 13.1944 79.8551 13.6307C79.459 13.8829 79.1235 14.7857 78.9446 15.222C78.6873 15.2649 78.6952 14.8488 78.5511 14.6243C77.5623 13.0759 75.7643 13.149 74.1735 13.6155C70.9077 14.5764 68.2163 18.5635 66.865 21.5191C66.4893 22.3413 66.1788 23.582 65.7603 24.2882C65.2659 25.1279 62.7441 27.7809 61.8816 28.1567C60.3483 28.825 60.4719 27.6675 60.7392 26.5402L65.44 14.8917L65.387 14.4654C64.4136 13.9182 63.0165 14.1098 61.9472 14.3318C61.6849 14.4755 61.4882 14.9799 61.3571 15.2548C60.0406 17.9834 59.047 21.0173 57.8012 23.7913C56.0536 26.3309 51.383 30.8753 48.0239 29.4681C45.7542 28.5173 46.9294 24.6134 47.6557 22.9061C48.4375 21.0728 50.5911 17.4286 52.4573 16.6544C54.5127 15.8021 53.7057 18.0238 53.2644 19.0653C52.9517 19.8042 52.0463 20.9845 51.8723 21.5494C51.5444 22.6237 52.6263 22.9465 53.4812 22.8734C56.6538 22.6035 58.9007 14.5335 54.4042 13.9257C51.3956 13.5172 48.7452 15.0884 46.8209 17.2521C45.8273 18.3642 45.1641 19.8749 44.0317 20.7953C43.5425 21.1938 41.6864 22.2782 41.1089 22.3135C40.9349 22.3236 40.9601 22.3211 40.9677 22.1673C41.0484 20.4423 41.0332 18.6114 40.0951 17.0832C38.2642 14.1048 34.146 15.3531 31.9444 17.2092C28.5373 20.0842 22.8076 31.3242 28.6004 34.0604C33.8484 36.5369 39.2427 29.3294 40.5112 24.9741L42.8086 24.1066C43.0003 24.0511 42.9625 24.205 42.9423 24.3336C42.8641 24.8228 42.5993 25.3675 42.5035 25.8794C40.9652 34.2117 48.5838 34.6052 53.8444 30.7946C54.7649 30.1263 55.529 29.3092 56.3637 28.5451V30.1994C56.3637 30.4012 56.8076 31.2006 56.9765 31.3822C58.1694 32.6507 60.2953 32.053 61.6244 31.3015C63.0971 30.4693 64.1034 29.0696 65.2458 27.8844C65.0919 29.4555 66.0551 31.2233 67.6768 31.5461C69.8228 31.9748 72.1156 30.6534 73.515 29.1125L74.8821 27.3169C74.5386 29.2588 75.2729 31.2965 77.565 31.0846C80.0163 30.8552 82.0768 28.4492 83.6228 26.752C84.1676 28.0205 84.5459 29.4681 85.8117 30.2297C90.0584 32.7793 97.1373 26.5705 97.5485 22.3463C97.6169 21.6477 97.1176 20.1044 96.2321 20.8432ZM91.7788 10.2463C92.5301 8.53653 94.6886 3.73232 96.3307 2.98581C96.686 2.82443 97.1274 2.79416 97.1853 3.26581C97.4959 5.72963 94.3485 11.4543 92.9689 13.608C91.69 15.6053 90.2301 17.6783 88.49 19.2848C89.3952 16.2181 90.4926 13.1767 91.7788 10.2463ZM34.199 29.9523C31.9217 32.2775 29.9673 31.0417 30.1942 27.9323C30.3203 26.2401 31.6619 23.0096 32.7186 21.673C32.7766 21.5973 32.7136 21.499 32.933 21.5544C33.1549 23.7106 35.2077 24.8782 37.1848 25.0952C36.34 26.6764 35.4675 28.6586 34.199 29.9523ZM38.0348 22.4976C36.2871 22.3085 34.721 21.1913 35.0186 19.2444C35.1724 18.2356 36.4787 17.1033 37.4623 17.8271C38.635 18.6896 38.1835 21.2518 38.0348 22.4976ZM77.2472 19.2394C76.4834 21.446 73.7518 26.7117 71.6413 27.7128C69.8228 28.5728 69.1268 27.3825 69.3189 25.6727C69.6064 23.113 73.409 16.1602 76.1834 15.8146C78.3544 15.5423 77.6636 18.0339 77.2472 19.2394Z" fill="#EC1E27"/>
<path d="M21.577 0.511963C27.975 0.00505549 31.7553 4.61756 29.695 10.8012C28.5601 14.2083 25.322 17.0076 22.4571 13.3634C22.4446 13.2222 23.6425 12.453 23.8669 12.2462C26.8881 9.47973 27.7683 2.71861 22.0259 3.22295C19.8975 3.40959 17.8598 5.00341 16.8258 6.80907C12.7353 13.956 20.2858 17.6128 22.7497 23.4711C27.2336 34.126 15.2521 43.4545 5.25543 39.6414C-1.21826 37.1725 -1.54102 28.767 3.36398 24.6185C5.41938 22.881 9.54517 21.5192 11.1012 24.5278C8.55405 25.6526 6.57438 27.5666 5.84806 30.3154C4.41563 35.7249 8.69023 39.1799 13.6331 36.3982C16.7602 34.6379 17.88 31.5033 17.6303 28.0206C17.0931 20.4751 7.04852 17.9456 10.047 9.09894C11.6509 4.36032 16.6543 0.900253 21.577 0.511963ZM8.51115 43.9941C8.47839 44.0041 8.44563 44.0168 8.4128 44.0294C8.40273 44.0067 8.43806 43.9966 8.51115 43.9941ZM92.2479 39.2026C69.5657 34.1941 40.9552 37.5381 19.1712 45.4266L11.6863 42.8643C39.3135 33.4754 75.5808 32.2851 92.9183 37.3944C93.1328 37.4574 92.4242 39.0991 92.2479 39.2026ZM65.6015 6.17604C68.2269 5.76249 69.1723 8.37762 67.7025 10.2615C65.7604 12.7506 61.7229 11.3106 63.2158 8.04479C63.6117 7.18229 64.6508 6.32736 65.599 6.17854L65.6015 6.17604Z" fill="#EC1E27"/>
<path d="M8.51117 43.9941C8.47841 44.0042 8.44565 44.0168 8.41282 44.0295C8.40275 44.0068 8.43808 43.9966 8.51117 43.9941Z" fill="#EC1E27"/>
</svg>
