<svg width="25" height="25" viewBox="0 0 25 25" fill="none" xmlns="http://www.w3.org/2000/svg">
<path d="M12.3334 3.18508C10.4769 3.18508 8.69638 3.92258 7.38363 5.23533C6.07087 6.54809 5.33337 8.32857 5.33337 10.1851C5.33337 13.0471 7.11537 15.8081 9.07137 17.9471C10.0715 19.0367 11.1628 20.039 12.3334 20.9431C12.508 20.8091 12.713 20.6457 12.9484 20.4531C13.8882 19.6813 14.7727 18.8446 15.5954 17.9491C17.5514 15.8081 19.3334 13.0481 19.3334 10.1851C19.3334 8.32857 18.5959 6.54809 17.2831 5.23533C15.9704 3.92258 14.1899 3.18508 12.3334 3.18508ZM12.3334 23.3991L11.7664 23.0091L11.7634 23.0071L11.7574 23.0021L11.7374 22.9881L11.6624 22.9351L11.3924 22.7381C10.0242 21.7099 8.75325 20.5584 7.59537 19.2981C5.55137 17.0601 3.33337 13.8211 3.33337 10.1841C3.33337 7.79713 4.28159 5.50795 5.96941 3.82012C7.65724 2.13229 9.94643 1.18408 12.3334 1.18408C14.7203 1.18408 17.0095 2.13229 18.6973 3.82012C20.3852 5.50795 21.3334 7.79713 21.3334 10.1841C21.3334 13.8211 19.1154 17.0611 17.0714 19.2961C15.9138 20.5563 14.6432 21.7078 13.2754 22.7361C13.1614 22.8212 13.0464 22.9049 12.9304 22.9871L12.9094 23.0011L12.9034 23.0061L12.9014 23.0071L12.3334 23.3991ZM12.3334 8.18508C11.8029 8.18508 11.2942 8.3958 10.9192 8.77087C10.5441 9.14594 10.3334 9.65465 10.3334 10.1851C10.3334 10.7155 10.5441 11.2242 10.9192 11.5993C11.2942 11.9744 11.8029 12.1851 12.3334 12.1851C12.8638 12.1851 13.3725 11.9744 13.7476 11.5993C14.1227 11.2242 14.3334 10.7155 14.3334 10.1851C14.3334 9.65465 14.1227 9.14594 13.7476 8.77087C13.3725 8.3958 12.8638 8.18508 12.3334 8.18508ZM8.33337 10.1851C8.33337 9.12422 8.7548 8.1068 9.50495 7.35665C10.2551 6.60651 11.2725 6.18508 12.3334 6.18508C13.3942 6.18508 14.4117 6.60651 15.1618 7.35665C15.9119 8.1068 16.3334 9.12422 16.3334 10.1851C16.3334 11.2459 15.9119 12.2634 15.1618 13.0135C14.4117 13.7637 13.3942 14.1851 12.3334 14.1851C11.2725 14.1851 10.2551 13.7637 9.50495 13.0135C8.7548 12.2634 8.33337 11.2459 8.33337 10.1851Z" fill="white"/>
</svg>
