<svg width="20" height="21" viewBox="0 0 20 21" fill="none" xmlns="http://www.w3.org/2000/svg">
<path fill-rule="evenodd" clip-rule="evenodd" d="M20 10.1401C20 4.61714 15.523 0.140137 10 0.140137C4.477 0.140137 0 4.61714 0 10.1401C0 15.6631 4.477 20.1401 10 20.1401C15.523 20.1401 20 15.6631 20 10.1401ZM10 5.14014C10.2652 5.14014 10.5196 5.24549 10.7071 5.43303C10.8946 5.62057 11 5.87492 11 6.14014V11.1401C11 11.4054 10.8946 11.6597 10.7071 11.8472C10.5196 12.0348 10.2652 12.1401 10 12.1401C9.73478 12.1401 9.48043 12.0348 9.29289 11.8472C9.10536 11.6597 9 11.4054 9 11.1401V6.14014C9 5.87492 9.10536 5.62057 9.29289 5.43303C9.48043 5.24549 9.73478 5.14014 10 5.14014ZM9 14.1401C9 13.8749 9.10536 13.6206 9.29289 13.433C9.48043 13.2455 9.73478 13.1401 10 13.1401H10.008C10.2732 13.1401 10.5276 13.2455 10.7151 13.433C10.9026 13.6206 11.008 13.8749 11.008 14.1401C11.008 14.4054 10.9026 14.6597 10.7151 14.8472C10.5276 15.0348 10.2732 15.1401 10.008 15.1401H10C9.73478 15.1401 9.48043 15.0348 9.29289 14.8472C9.10536 14.6597 9 14.4054 9 14.1401Z" fill="#DD790C"/>
</svg>
