<svg width="24" height="25" viewBox="0 0 24 25" fill="none" xmlns="http://www.w3.org/2000/svg">
<path d="M21.9999 17.0602V20.0602C22.0011 20.3387 21.944 20.6144 21.8324 20.8696C21.7209 21.1248 21.5572 21.3538 21.352 21.5421C21.1468 21.7304 20.9045 21.8737 20.6407 21.9629C20.3769 22.0522 20.0973 22.0853 19.8199 22.0602C16.7428 21.7259 13.7869 20.6744 11.1899 18.9902C8.77376 17.4549 6.72527 15.4064 5.18993 12.9902C3.49991 10.3814 2.44818 7.41123 2.11993 4.32023C2.09494 4.0437 2.12781 3.76499 2.21643 3.50186C2.30506 3.23872 2.4475 2.99692 2.6347 2.79185C2.82189 2.58679 3.04974 2.42294 3.30372 2.31076C3.55771 2.19857 3.83227 2.1405 4.10993 2.14023H7.10993C7.59524 2.13546 8.06572 2.30731 8.43369 2.62377C8.80166 2.94022 9.04201 3.37968 9.10993 3.86023C9.23656 4.8203 9.47138 5.76296 9.80993 6.67023C9.94448 7.02816 9.9736 7.41715 9.89384 7.79111C9.81408 8.16508 9.6288 8.50834 9.35993 8.78023L8.08993 10.0502C9.51349 12.5538 11.5864 14.6267 14.0899 16.0502L15.3599 14.7802C15.6318 14.5114 15.9751 14.3261 16.3491 14.2463C16.723 14.1666 17.112 14.1957 17.4699 14.3302C18.3772 14.6688 19.3199 14.9036 20.2799 15.0302C20.7657 15.0988 21.2093 15.3434 21.5265 15.7177C21.8436 16.092 22.0121 16.5698 21.9999 17.0602Z" stroke="white" stroke-width="2" stroke-linecap="round" stroke-linejoin="round"/>
</svg>
